<mxfile host="65bd71144e">
    <diagram id="rkbO33XDkDLZZNYWl8fv" name="Page-1">
        <mxGraphModel dx="1469" dy="356" grid="1" gridSize="1" guides="1" tooltips="1" connect="1" arrows="1" fold="1" page="1" pageScale="1" pageWidth="827" pageHeight="1169" math="0" shadow="0">
            <root>
                <mxCell id="0"/>
                <mxCell id="1" parent="0"/>
                <mxCell id="43" value="" style="rounded=0;whiteSpace=wrap;html=1;shadow=0;glass=0;sketch=0;dashed=1;fillColor=none;" vertex="1" parent="1">
                    <mxGeometry x="47" y="700" width="734" height="240" as="geometry"/>
                </mxCell>
                <mxCell id="12" value="" style="rounded=1;whiteSpace=wrap;html=1;" vertex="1" parent="1">
                    <mxGeometry x="54" y="840" width="720" height="80" as="geometry"/>
                </mxCell>
                <mxCell id="39" style="rounded=1;html=1;exitX=1;exitY=1;exitDx=0;exitDy=0;strokeColor=#fdf7f7;startArrow=oval;startFill=1;endArrow=blockThin;endFill=1;elbow=vertical;entryX=0;entryY=0;entryDx=0;entryDy=0;" edge="1" parent="1" source="15" target="40">
                    <mxGeometry relative="1" as="geometry">
                        <mxPoint x="820" y="950" as="targetPoint"/>
                    </mxGeometry>
                </mxCell>
                <mxCell id="35" style="edgeStyle=orthogonalEdgeStyle;rounded=1;html=1;exitX=1;exitY=0.5;exitDx=0;exitDy=0;strokeColor=#fdf7f7;startArrow=oval;startFill=1;endArrow=blockThin;endFill=1;elbow=vertical;" edge="1" parent="1" source="25" target="15">
                    <mxGeometry relative="1" as="geometry">
                        <mxPoint x="780" y="890" as="targetPoint"/>
                        <Array as="points">
                            <mxPoint x="810" y="760"/>
                            <mxPoint x="810" y="880"/>
                        </Array>
                    </mxGeometry>
                </mxCell>
                <mxCell id="37" value="ON_BLUR&lt;br&gt;&lt;br&gt;Transform" style="edgeLabel;html=1;align=center;verticalAlign=middle;resizable=0;points=[];" vertex="1" connectable="0" parent="35">
                    <mxGeometry x="0.1276" y="1" relative="1" as="geometry">
                        <mxPoint y="-48" as="offset"/>
                    </mxGeometry>
                </mxCell>
                <mxCell id="25" value="" style="rounded=1;whiteSpace=wrap;html=1;" vertex="1" parent="1">
                    <mxGeometry x="54" y="720" width="720" height="80" as="geometry"/>
                </mxCell>
                <mxCell id="16" value="" style="rounded=1;whiteSpace=wrap;html=1;" vertex="1" parent="1">
                    <mxGeometry x="54" y="960" width="720" height="80" as="geometry"/>
                </mxCell>
                <mxCell id="38" style="edgeStyle=orthogonalEdgeStyle;rounded=1;html=1;exitX=1;exitY=0.5;exitDx=0;exitDy=0;strokeColor=#fdf7f7;startArrow=oval;startFill=1;endArrow=diamondThin;endFill=1;elbow=vertical;" edge="1" parent="1" source="12">
                    <mxGeometry relative="1" as="geometry">
                        <mxPoint x="774.0833333333335" y="880.1666666666667" as="targetPoint"/>
                    </mxGeometry>
                </mxCell>
                <mxCell id="2" value="" style="rounded=1;whiteSpace=wrap;html=1;" vertex="1" parent="1">
                    <mxGeometry x="54" y="600" width="720" height="80" as="geometry"/>
                </mxCell>
                <mxCell id="49" style="edgeStyle=orthogonalEdgeStyle;rounded=1;html=1;strokeColor=#fdf7f7;startArrow=classic;startFill=1;endArrow=oval;endFill=1;elbow=vertical;entryX=1;entryY=0.5;entryDx=0;entryDy=0;" edge="1" parent="1" source="3" target="50">
                    <mxGeometry relative="1" as="geometry">
                        <mxPoint x="-136" y="640" as="targetPoint"/>
                    </mxGeometry>
                </mxCell>
                <mxCell id="3" value="Field Name" style="rounded=1;whiteSpace=wrap;html=1;" vertex="1" parent="1">
                    <mxGeometry x="64" y="610" width="276" height="60" as="geometry"/>
                </mxCell>
                <mxCell id="10" style="edgeStyle=orthogonalEdgeStyle;html=1;endArrow=diamondThin;endFill=1;elbow=vertical;startArrow=none;startFill=0;rounded=1;strokeColor=#fdf7f7;" edge="1" parent="1" source="18" target="11">
                    <mxGeometry relative="1" as="geometry">
                        <mxPoint x="520" y="470" as="targetPoint"/>
                        <mxPoint x="570" y="380" as="sourcePoint"/>
                        <Array as="points"/>
                    </mxGeometry>
                </mxCell>
                <mxCell id="23" style="edgeStyle=orthogonalEdgeStyle;rounded=1;html=1;strokeColor=#fdf7f7;startArrow=oval;startFill=1;endArrow=classic;endFill=1;elbow=vertical;" edge="1" parent="1" source="4">
                    <mxGeometry relative="1" as="geometry">
                        <mxPoint x="521.9999999999998" y="530" as="sourcePoint"/>
                        <mxPoint x="522" y="400" as="targetPoint"/>
                        <Array as="points"/>
                    </mxGeometry>
                </mxCell>
                <mxCell id="32" value="&lt;p style=&quot;line-height: 100%;&quot;&gt;ON_FOCUS&lt;br&gt;(not compulsory)&lt;/p&gt;" style="edgeLabel;html=1;align=center;verticalAlign=middle;resizable=0;points=[];horizontal=1;" vertex="1" connectable="0" parent="23">
                    <mxGeometry x="-0.5048" y="-1" relative="1" as="geometry">
                        <mxPoint x="-2" y="-24" as="offset"/>
                    </mxGeometry>
                </mxCell>
                <mxCell id="33" value="GET_DATA" style="edgeLabel;html=1;align=center;verticalAlign=middle;resizable=0;points=[];" vertex="1" connectable="0" parent="23">
                    <mxGeometry x="-0.2024" y="2" relative="1" as="geometry">
                        <mxPoint x="3" y="-34" as="offset"/>
                    </mxGeometry>
                </mxCell>
                <mxCell id="4" value="Field Data" style="rounded=1;whiteSpace=wrap;html=1;" vertex="1" parent="1">
                    <mxGeometry x="350" y="610" width="344" height="60" as="geometry"/>
                </mxCell>
                <mxCell id="5" value="Submit" style="rounded=1;whiteSpace=wrap;html=1;" vertex="1" parent="1">
                    <mxGeometry x="704" y="610" width="60" height="60" as="geometry"/>
                </mxCell>
                <mxCell id="11" value="Common Functions" style="rounded=0;whiteSpace=wrap;html=1;" vertex="1" parent="1">
                    <mxGeometry x="462" y="370" width="120" height="60" as="geometry"/>
                </mxCell>
                <mxCell id="13" value="Field Name" style="rounded=1;whiteSpace=wrap;html=1;" vertex="1" parent="1">
                    <mxGeometry x="64" y="850" width="276" height="60" as="geometry"/>
                </mxCell>
                <mxCell id="21" style="edgeStyle=orthogonalEdgeStyle;rounded=1;html=1;exitX=0.5;exitY=1;exitDx=0;exitDy=0;strokeColor=#fdf7f7;startArrow=oval;startFill=1;endArrow=oval;endFill=1;elbow=vertical;" edge="1" parent="1" source="14" target="18">
                    <mxGeometry relative="1" as="geometry"/>
                </mxCell>
                <mxCell id="22" style="edgeStyle=orthogonalEdgeStyle;rounded=1;html=1;exitX=0.5;exitY=0;exitDx=0;exitDy=0;strokeColor=#fdf7f7;startArrow=oval;startFill=1;endArrow=oval;endFill=1;elbow=vertical;" edge="1" parent="1" source="14">
                    <mxGeometry relative="1" as="geometry">
                        <mxPoint x="522" y="791" as="targetPoint"/>
                    </mxGeometry>
                </mxCell>
                <mxCell id="14" value="Field Data" style="rounded=1;whiteSpace=wrap;html=1;" vertex="1" parent="1">
                    <mxGeometry x="350" y="850" width="344" height="60" as="geometry"/>
                </mxCell>
                <mxCell id="15" value="Status&lt;br&gt;icon" style="rounded=1;whiteSpace=wrap;html=1;" vertex="1" parent="1">
                    <mxGeometry x="704" y="850" width="60" height="60" as="geometry"/>
                </mxCell>
                <mxCell id="17" value="Field Name" style="rounded=1;whiteSpace=wrap;html=1;" vertex="1" parent="1">
                    <mxGeometry x="64" y="970" width="276" height="60" as="geometry"/>
                </mxCell>
                <mxCell id="18" value="Field Data&lt;br&gt;(Read only)" style="rounded=1;whiteSpace=wrap;html=1;" vertex="1" parent="1">
                    <mxGeometry x="350" y="970" width="344" height="60" as="geometry"/>
                </mxCell>
                <mxCell id="19" value="File&lt;br&gt;Picker" style="rounded=1;whiteSpace=wrap;html=1;" vertex="1" parent="1">
                    <mxGeometry x="704" y="970" width="60" height="60" as="geometry"/>
                </mxCell>
                <mxCell id="26" value="Field Name" style="rounded=1;whiteSpace=wrap;html=1;" vertex="1" parent="1">
                    <mxGeometry x="64" y="730" width="276" height="60" as="geometry"/>
                </mxCell>
                <mxCell id="29" style="edgeStyle=orthogonalEdgeStyle;rounded=1;html=1;exitX=0.416;exitY=0.021;exitDx=0;exitDy=0;strokeColor=#fdf7f7;startArrow=oval;startFill=1;endArrow=oval;endFill=1;elbow=vertical;exitPerimeter=0;" edge="1" parent="1" source="27">
                    <mxGeometry relative="1" as="geometry">
                        <mxPoint x="522" y="672" as="targetPoint"/>
                    </mxGeometry>
                </mxCell>
                <mxCell id="27" value="Field Data" style="rounded=1;whiteSpace=wrap;html=1;" vertex="1" parent="1">
                    <mxGeometry x="350" y="730" width="413" height="60" as="geometry"/>
                </mxCell>
                <mxCell id="40" value="Becomes&lt;br&gt;Visible" style="rounded=0;whiteSpace=wrap;html=1;glass=0;shadow=0;" vertex="1" parent="1">
                    <mxGeometry x="788" y="942" width="60" height="30" as="geometry"/>
                </mxCell>
                <mxCell id="44" value="&lt;span style=&quot;&quot;&gt;Two different stages&lt;/span&gt;" style="text;html=1;align=center;verticalAlign=middle;resizable=0;points=[];autosize=1;strokeColor=none;fillColor=none;" vertex="1" parent="1">
                    <mxGeometry x="345" y="920" width="130" height="30" as="geometry"/>
                </mxCell>
                <mxCell id="48" value="" style="edgeStyle=orthogonalEdgeStyle;rounded=1;html=1;exitX=0;exitY=0.5;exitDx=0;exitDy=0;strokeColor=#fdf7f7;startArrow=none;startFill=0;endArrow=none;endFill=1;elbow=vertical;" edge="1" parent="1" source="43" target="47">
                    <mxGeometry relative="1" as="geometry">
                        <mxPoint x="-82" y="820" as="targetPoint"/>
                        <mxPoint x="47" y="820" as="sourcePoint"/>
                    </mxGeometry>
                </mxCell>
                <mxCell id="47" value="ON_BLUR&lt;br&gt;(only for this variant)" style="rounded=1;whiteSpace=wrap;html=1;shadow=0;glass=0;sketch=0;fillColor=none;" vertex="1" parent="1">
                    <mxGeometry x="-137" y="790" width="120" height="60" as="geometry"/>
                </mxCell>
                <mxCell id="50" value="Might not be&amp;nbsp;&lt;br&gt;necessary" style="rounded=0;whiteSpace=wrap;html=1;shadow=0;glass=0;sketch=0;fillColor=none;" vertex="1" parent="1">
                    <mxGeometry x="-144" y="609" width="120" height="60" as="geometry"/>
                </mxCell>
                <mxCell id="52" style="edgeStyle=orthogonalEdgeStyle;rounded=1;html=1;exitX=0;exitY=0.5;exitDx=0;exitDy=0;strokeColor=#fdf7f7;startArrow=oval;startFill=1;endArrow=classic;endFill=1;elbow=vertical;" edge="1" parent="1" source="51" target="27">
                    <mxGeometry relative="1" as="geometry">
                        <Array as="points">
                            <mxPoint x="552" y="821"/>
                        </Array>
                    </mxGeometry>
                </mxCell>
                <mxCell id="53" style="edgeStyle=orthogonalEdgeStyle;rounded=1;html=1;exitX=0;exitY=0.5;exitDx=0;exitDy=0;strokeColor=#fdf7f7;startArrow=oval;startFill=1;endArrow=classic;endFill=1;elbow=vertical;" edge="1" parent="1" source="51">
                    <mxGeometry relative="1" as="geometry">
                        <mxPoint x="552" y="852" as="targetPoint"/>
                    </mxGeometry>
                </mxCell>
                <mxCell id="51" value="Field Data readjusts" style="rounded=0;whiteSpace=wrap;html=1;shadow=0;glass=0;sketch=0;fillColor=none;" vertex="1" parent="1">
                    <mxGeometry x="562" y="810" width="175" height="23" as="geometry"/>
                </mxCell>
            </root>
        </mxGraphModel>
    </diagram>
</mxfile>